<?xml version="1.0" encoding="UTF-8"?><svg id="Layer_2" xmlns="http://www.w3.org/2000/svg" xmlns:xlink="http://www.w3.org/1999/xlink" viewBox="0 0 1927.86 1077.69"><defs><style>.cls-1{fill:url(#New_Pattern);}.cls-2{fill:#fffd74;}.cls-3{fill:none;}</style><pattern id="New_Pattern" x="0" y="0" width="225" height="138.83" patternTransform="translate(2.3 1.06)" patternUnits="userSpaceOnUse" viewBox="0 0 225 138.83"><g><rect class="cls-3" y="0" width="225" height="138.83"/><g><g><path class="cls-2" d="M182.88,142.09c-.29,.36-.49,.74-.81,.96-.42,.29-.89,.17-1.26-.17-.54-.51-1.06-1.04-1.59-1.57-1.03-1.03-2.05-2.05-3.07-3.08-.61-.61-.66-1.25-.16-1.76,.5-.5,1.16-.46,1.76,.14,1.49,1.48,2.98,2.96,4.45,4.46,.25,.26,.41,.61,.68,1.02Z"/><path class="cls-2" d="M209.23,137.18c-.23,.41-.34,.73-.55,.95-1.54,1.57-3.09,3.12-4.65,4.66-.54,.54-1.2,.55-1.68,.07-.47-.48-.46-1.13,.08-1.68,1.54-1.56,3.1-3.11,4.65-4.66,.37-.37,.84-.55,1.3-.27,.33,.21,.56,.6,.85,.93Z"/><path class="cls-2" d="M191.23,134.18c0-1.07,0-2.14,0-3.21,0-.78,.47-1.3,1.14-1.3,.67,0,1.13,.52,1.14,1.31,0,2.14,0,4.27,0,6.41,0,.79-.45,1.31-1.11,1.33-.69,.02-1.16-.52-1.16-1.33,0-1.07,0-2.14,0-3.21Z"/></g><g><path class="cls-2" d="M213.53,84.44c.6,.05,1.69,.44,2.54,.14,.82-.29,1.33-1.35,2.06-1.98,7.75-6.71,19.5-4.07,23.69,5.32,.24,.53,.51,.85,1.09,1.06,4.97,1.79,7.91,6.85,7.09,12.1-.78,5.04-5.26,8.96-10.46,9.16-1.07,.04-1.62-.35-1.67-1.21-.06-.95,.48-1.47,1.59-1.54,4.29-.27,7.47-3.28,7.95-7.53,.43-3.82-2.25-7.53-6.26-8.64-.78-.21-1.2-.66-1.49-1.41-1.92-4.92-5.49-7.83-10.79-8.25-4.38-.35-7.96,1.43-10.65,4.88-.72,.92-1.37,1.27-2.6,.97-5.86-1.43-11.42,2.14-12.55,7.95-1.11,5.71,2.8,11.06,8.74,11.96,.36,.05,.72,.05,1.08,.07,.99,.07,1.51,.58,1.5,1.45-.01,.85-.59,1.32-1.6,1.31-5.47-.07-10.39-3.76-12.03-9-2.63-8.46,3.55-16.83,12.79-16.82Z"/><path class="cls-2" d="M225.61,104.99c-3.36,0-6.71,.02-10.06-.02-.5,0-1.14-.16-1.45-.49-.27-.29-.36-1.02-.18-1.39,.2-.39,.79-.79,1.23-.82,1.26-.1,2.53,0,3.8,0,5.35,.03,10.7,.05,16.05,.08,1.8,0,2.93-.64,3.38-1.9,.39-1.12,.05-2.34-.89-3.1-.9-.73-2.04-.79-3.12-.13-.26,.15-.49,.36-.71,.56-.78,.72-1.35,.77-1.95,.14-.6-.62-.59-1.41,.03-2.11,2.09-2.36,5.96-2.38,8.05,0,1.5,1.71,1.94,3.69,1.02,5.81-.94,2.18-2.67,3.32-5.04,3.36-3.38,.05-6.77,.01-10.16,.01Z"/><path class="cls-2" d="M226.66,112.79c1.75,0,3.51-.09,5.25,.02,3.32,.2,5.37,3.04,4.47,6.1-.51,1.74-1.72,2.82-3.46,3.23-1.79,.42-3.35-.09-4.61-1.42-.61-.64-.59-1.4,0-2.02,.56-.6,1.18-.58,1.9,.02,.27,.23,.56,.47,.88,.62,1.08,.49,2.24-.02,2.64-1.14,.38-1.05-.16-2.24-1.24-2.53-.57-.16-1.19-.18-1.79-.18-3.02,0-6.04,.04-9.06,.01-.47,0-1.12-.14-1.37-.46-.28-.35-.38-1.08-.2-1.47,.18-.39,.81-.76,1.26-.79,1.78-.09,3.56-.04,5.34-.04v.03Z"/><path class="cls-2" d="M226.15,110.27c-2.66,0-5.32,.01-7.98,0-1.11,0-1.59-.48-1.55-1.43,.04-.9,.53-1.33,1.57-1.33,2.69,0,5.38,0,8.07,0,2.66,0,5.32,0,7.98,0,1.07,0,1.67,.6,1.58,1.53-.07,.79-.6,1.22-1.6,1.23-2.69,.01-5.38,0-8.07,0Z"/></g></g><g><g><path class="cls-2" d="M41.99,138.06c0,.79,.02,1.57,0,2.36-.02,.82-.43,1.22-1.16,1.21-.69-.02-1.08-.41-1.09-1.21-.02-1.6-.02-3.19,0-4.79,0-.77,.43-1.2,1.09-1.23,.69-.02,1.14,.44,1.16,1.23,.02,.81,0,1.62,0,2.43Z"/><path class="cls-2" d="M52.55,137.6c1.08,.01,1.66,.84,1.26,1.58-.83,1.53-1.7,3.03-2.6,4.51-.33,.56-.93,.64-1.47,.32-.53-.31-.74-.89-.43-1.45,.83-1.5,1.68-2.98,2.57-4.44,.17-.27,.54-.42,.67-.52Z"/><path class="cls-2" d="M29.17,137.6c.14,.11,.52,.27,.7,.57,.87,1.42,1.69,2.86,2.51,4.31,.35,.63,.15,1.25-.44,1.56-.58,.31-1.13,.17-1.5-.45-.85-1.43-1.69-2.87-2.49-4.32-.44-.79,.09-1.64,1.23-1.67Z"/></g><g><path class="cls-2" d="M-11.47,84.44c.6,.05,1.69,.44,2.54,.14,.82-.29,1.33-1.35,2.06-1.98,7.75-6.71,19.5-4.07,23.69,5.32,.24,.53,.51,.85,1.09,1.06,4.97,1.79,7.91,6.85,7.09,12.1-.78,5.04-5.26,8.96-10.46,9.16-1.07,.04-1.62-.35-1.67-1.21-.06-.95,.48-1.47,1.59-1.54,4.29-.27,7.47-3.28,7.95-7.53,.43-3.82-2.25-7.53-6.26-8.64-.78-.21-1.2-.66-1.49-1.41-1.92-4.92-5.49-7.83-10.79-8.25-4.38-.35-7.96,1.43-10.65,4.88-.72,.92-1.37,1.27-2.6,.97-5.86-1.43-11.42,2.14-12.55,7.95-1.11,5.71,2.8,11.06,8.74,11.96,.36,.05,.72,.05,1.08,.07,.99,.07,1.51,.58,1.5,1.45-.01,.85-.59,1.32-1.6,1.31-5.47-.07-10.39-3.76-12.03-9-2.63-8.46,3.55-16.83,12.79-16.82Z"/><path class="cls-2" d="M.61,104.99c-3.36,0-6.71,.02-10.06-.02-.5,0-1.14-.16-1.45-.49-.27-.29-.36-1.02-.18-1.39,.2-.39,.79-.79,1.23-.82,1.26-.1,2.53,0,3.8,0,5.35,.03,10.7,.05,16.05,.08,1.8,0,2.93-.64,3.38-1.9,.39-1.12,.05-2.34-.89-3.1-.9-.73-2.04-.79-3.12-.13-.26,.15-.49,.36-.71,.56-.78,.72-1.35,.77-1.95,.14-.6-.62-.59-1.41,.03-2.11,2.09-2.36,5.96-2.38,8.05,0,1.5,1.71,1.94,3.69,1.02,5.81-.94,2.18-2.67,3.32-5.04,3.36-3.38,.05-6.77,.01-10.16,.01Z"/><path class="cls-2" d="M1.66,112.79c1.75,0,3.51-.09,5.25,.02,3.32,.2,5.37,3.04,4.47,6.1-.51,1.74-1.72,2.82-3.46,3.23-1.79,.42-3.35-.09-4.61-1.42-.61-.64-.59-1.4,0-2.02,.56-.6,1.18-.58,1.9,.02,.27,.23,.56,.47,.88,.62,1.08,.49,2.24-.02,2.64-1.14,.38-1.05-.16-2.24-1.24-2.53-.57-.16-1.19-.18-1.79-.18-3.02,0-6.04,.04-9.06,.01-.47,0-1.12-.14-1.37-.46-.28-.35-.38-1.08-.2-1.47,.18-.39,.81-.76,1.26-.79,1.78-.09,3.56-.04,5.34-.04v.03Z"/><path class="cls-2" d="M1.15,110.27c-2.66,0-5.32,.01-7.98,0-1.11,0-1.59-.48-1.55-1.43,.04-.9,.53-1.33,1.57-1.33,2.69,0,5.38,0,8.07,0,2.66,0,5.32,0,7.98,0,1.07,0,1.67,.6,1.58,1.53-.07,.79-.6,1.22-1.6,1.23-2.69,.01-5.38,0-8.07,0Z"/></g></g><g><path class="cls-2" d="M207.16,23.02c-.28-1.06-.47-2.06-.8-3.01-1.56-4.36-5.97-7.5-10.41-7.35-3.58,.12-6.51,1.63-8.71,4.48-.48,.62-.87,.79-1.46,.6-.81-.25-1.06-1.09-.52-1.85,1.1-1.56,2.48-2.82,4.14-3.73,4.57-2.5,9.13-2.59,13.63,.2,.08,.05,.16,.09,.32,.18-.49-3.06-1.94-5.43-4.29-7.31-4.53-3.62-11.67-2.8-15.4,2.18-.23,.31-.64,.63-.99,.65-.34,.02-.79-.25-1.04-.53-.32-.37-.22-.86,.07-1.27,1.3-1.8,2.94-3.2,4.94-4.17,8.13-3.95,17.69,1.09,19.01,10.03,.06,.4,.15,.8,.11,1.2-.1,.99,.22,1.77,.89,2.52,.52,.59,.91,1.32,1.28,2.03,.36,.69,.62,1.43,.94,2.19,1.47-.27,2.94-.21,4.39,.26,3.57,1.15,6.11,4.76,5.94,8.45-.04,.79-.48,1.24-1.2,1.24-.67,0-1.09-.48-1.09-1.26,0-.08,0-.15,0-.23-.01-3.59-3.08-6.53-6.65-6.31-.71,.04-1.41,.31-2.11,.5-.33,.09-.64,.22-.99,.34Z"/><path class="cls-2" d="M182.84,23.27c-.16-.22-.25-.36-.36-.49-2.52-2.96-3.61-6.37-3.21-10.25,.09-.83,.58-1.33,1.26-1.25,.69,.08,1.1,.67,1.01,1.47-.26,2.17,.09,4.24,1.09,6.17,.49,.93,1.01,1.86,2,2.43,.25,.15,.44,.6,.46,.92,.06,1.2,.04,2.4,.05,3.6,0,.09-.02,.19-.03,.34-.56-.15-1.09-.29-1.62-.44-1.96-.54-4.04,.28-5.12,2.01-1.08,1.72-.93,3.92,.42,5.43,.9,1,2.09,1.53,3.41,1.54,9.67,.03,19.34,.02,29.02,0,.52,0,1.03-.23,1.55-.37,.79-.21,1.35,.05,1.56,.73,.2,.67-.15,1.2-.9,1.48-1.04,.38-2.1,.49-3.2,.49-9.35-.02-18.69,.05-28.04-.05-3.82-.04-6.46-2.71-6.76-6.28-.31-3.68,2.33-6.88,5.88-7.34,.47-.06,.94-.09,1.55-.14Z"/><path class="cls-2" d="M182.88,3.26c-.29,.36-.49,.74-.81,.96-.42,.29-.89,.17-1.26-.17-.54-.51-1.06-1.04-1.59-1.57-1.03-1.03-2.05-2.05-3.07-3.08-.61-.61-.66-1.25-.16-1.76,.5-.5,1.16-.46,1.76,.14,1.49,1.48,2.98,2.96,4.45,4.46,.25,.26,.41,.61,.68,1.02Z"/><path class="cls-2" d="M209.23-1.66c-.23,.41-.34,.73-.55,.95-1.54,1.57-3.09,3.12-4.65,4.66-.54,.54-1.2,.55-1.68,.07-.47-.48-.46-1.13,.08-1.68,1.54-1.56,3.1-3.11,4.65-4.66,.37-.37,.84-.55,1.3-.27,.33,.21,.56,.6,.85,.93Z"/><path class="cls-2" d="M173.73,15.15c-1.07,0-2.14,0-3.21,0-.79,0-1.31-.45-1.32-1.12-.01-.69,.52-1.16,1.34-1.16,2.12,0,4.24,0,6.35,0,.83,0,1.35,.46,1.35,1.15,0,.69-.53,1.13-1.37,1.13-1.05,0-2.1,0-3.15,0Z"/><path class="cls-2" d="M210.95,15.15c-1.05,0-2.1,0-3.15,0-.79,0-1.3-.45-1.31-1.13,0-.67,.51-1.15,1.29-1.15,2.16,0,4.31,0,6.47,0,.78,0,1.29,.48,1.28,1.15-.01,.67-.53,1.12-1.32,1.12-1.09,0-2.17,0-3.26,0Z"/><path class="cls-2" d="M218.42,31.87c-.02,.08-.04,.29-.14,.44-.56,.79-1.1,1.6-1.72,2.34-.45,.53-1.14,.5-1.63,.05-.47-.43-.45-1.08,0-1.64,.47-.6,.91-1.21,1.35-1.84,.33-.48,.81-.71,1.32-.56,.48,.14,.83,.6,.82,1.22Z"/><path class="cls-2" d="M185.86,19.28c0,.71-.53,1.26-1.21,1.25-.69,0-1.15-.46-1.15-1.14,0-.74,.54-1.31,1.23-1.31,.61,0,1.14,.56,1.14,1.2Z"/><path class="cls-2" d="M181.16,8.38c.64-.01,1.13,.45,1.15,1.08,.02,.69-.51,1.3-1.16,1.31-.6,.01-1.14-.49-1.16-1.1-.03-.69,.51-1.28,1.17-1.3Z"/></g><g><g><path class="cls-2" d="M94.66,92.44c-.28-1.06-.47-2.06-.8-3.01-1.56-4.36-5.97-7.5-10.41-7.35-3.58,.12-6.51,1.63-8.71,4.48-.48,.62-.87,.79-1.46,.6-.81-.25-1.06-1.09-.52-1.85,1.1-1.56,2.48-2.82,4.14-3.73,4.57-2.5,9.13-2.59,13.63,.2,.08,.05,.16,.09,.32,.18-.49-3.06-1.94-5.43-4.29-7.31-4.53-3.62-11.67-2.8-15.4,2.18-.23,.31-.64,.63-.99,.65-.34,.02-.79-.25-1.04-.53-.32-.37-.22-.86,.07-1.27,1.3-1.8,2.94-3.2,4.94-4.17,8.13-3.95,17.69,1.09,19.01,10.03,.06,.4,.15,.8,.11,1.2-.1,.99,.22,1.77,.89,2.52,.52,.59,.91,1.32,1.28,2.03,.36,.69,.62,1.43,.94,2.19,1.47-.27,2.94-.21,4.39,.26,3.57,1.15,6.11,4.76,5.94,8.45-.04,.79-.48,1.24-1.2,1.24-.67,0-1.09-.48-1.09-1.26,0-.08,0-.15,0-.23-.01-3.59-3.08-6.53-6.65-6.31-.71,.04-1.41,.31-2.11,.5-.33,.09-.64,.22-.99,.34Z"/><path class="cls-2" d="M70.34,92.69c-.16-.22-.25-.36-.36-.49-2.52-2.96-3.61-6.37-3.21-10.25,.09-.83,.58-1.33,1.26-1.25,.69,.08,1.1,.67,1.01,1.47-.26,2.17,.09,4.24,1.09,6.17,.49,.93,1.01,1.86,2,2.43,.25,.15,.44,.6,.46,.92,.06,1.2,.04,2.4,.05,3.6,0,.09-.02,.19-.03,.34-.56-.15-1.09-.29-1.62-.44-1.96-.54-4.04,.28-5.12,2.01-1.08,1.72-.93,3.92,.42,5.43,.9,1,2.09,1.53,3.41,1.54,9.67,.03,19.34,.02,29.02,0,.52,0,1.03-.23,1.55-.37,.79-.21,1.35,.05,1.56,.73,.2,.67-.15,1.2-.9,1.48-1.04,.38-2.1,.49-3.2,.49-9.35-.02-18.69,.05-28.04-.05-3.82-.04-6.46-2.71-6.76-6.28-.31-3.68,2.33-6.88,5.88-7.34,.47-.06,.94-.09,1.55-.14Z"/><path class="cls-2" d="M70.38,72.68c-.29,.36-.49,.74-.81,.96-.42,.29-.89,.17-1.26-.17-.54-.51-1.06-1.04-1.59-1.57-1.03-1.03-2.05-2.05-3.07-3.08-.61-.61-.66-1.25-.16-1.76,.5-.5,1.16-.46,1.76,.14,1.49,1.48,2.98,2.96,4.45,4.46,.25,.26,.41,.61,.68,1.02Z"/><path class="cls-2" d="M96.73,67.76c-.23,.41-.34,.73-.55,.95-1.54,1.57-3.09,3.12-4.65,4.66-.54,.54-1.2,.55-1.68,.07-.47-.48-.46-1.13,.08-1.68,1.54-1.56,3.1-3.11,4.65-4.66,.37-.37,.84-.55,1.3-.27,.33,.21,.56,.6,.85,.93Z"/><path class="cls-2" d="M78.73,64.77c0-1.07,0-2.14,0-3.21,0-.78,.47-1.3,1.14-1.3,.67,0,1.13,.52,1.14,1.31,0,2.14,0,4.27,0,6.41,0,.79-.45,1.31-1.11,1.33-.69,.02-1.16-.52-1.16-1.33,0-1.07,0-2.14,0-3.21Z"/><path class="cls-2" d="M61.23,84.57c-1.07,0-2.14,0-3.21,0-.79,0-1.31-.45-1.32-1.12-.01-.69,.52-1.16,1.34-1.16,2.12,0,4.24,0,6.35,0,.83,0,1.35,.46,1.35,1.15,0,.69-.53,1.13-1.37,1.13-1.05,0-2.1,0-3.15,0Z"/><path class="cls-2" d="M98.45,84.57c-1.05,0-2.1,0-3.15,0-.79,0-1.3-.45-1.31-1.13,0-.67,.51-1.15,1.29-1.15,2.16,0,4.31,0,6.47,0,.78,0,1.29,.48,1.28,1.15-.01,.67-.53,1.12-1.32,1.12-1.09,0-2.17,0-3.26,0Z"/><path class="cls-2" d="M105.92,101.28c-.02,.08-.04,.29-.14,.44-.56,.79-1.1,1.6-1.72,2.34-.45,.53-1.14,.5-1.63,.05-.47-.43-.45-1.08,0-1.64,.47-.6,.91-1.21,1.35-1.84,.33-.48,.81-.71,1.32-.56,.48,.14,.83,.6,.82,1.22Z"/><path class="cls-2" d="M73.36,88.7c0,.71-.53,1.26-1.21,1.25-.69,0-1.15-.46-1.15-1.14,0-.74,.54-1.31,1.23-1.31,.61,0,1.14,.56,1.14,1.2Z"/><path class="cls-2" d="M68.66,77.8c.64-.01,1.13,.45,1.15,1.08,.02,.69-.51,1.3-1.16,1.31-.6,.01-1.14-.49-1.16-1.1-.03-.69,.51-1.28,1.17-1.3Z"/></g><g><path class="cls-2" d="M139.27,96.3c-3.14,0-6.28,0-9.43,0-1,0-1.52,.64-1.24,1.5,.24,.7,.82,.74,1.44,.74,13.74,0,27.49,0,41.23,0,1.87,0,3.73,0,5.6,0,.88,0,1.33-.47,1.27-1.25-.06-.67-.45-.98-1.29-.98-3.17,0-6.33,0-9.5,0-.26,0-.51-.02-.86-.04,1.46-3.21,1.85-6.44,.99-9.77-.87-3.35-2.67-6.1-5.44-8.17-4.92-3.67-11.46-4.04-16.54-.56-6.71,4.6-8.04,10.99-5.45,18.54-.26,0-.52,0-.78,0Zm4.22-.06c-.58,0-.88-.19-1.13-.7-3.82-7.6,1.12-16.79,9.55-17.75,6.82-.78,12.97,4.21,13.66,11.06,.24,2.4-.29,4.62-1.31,6.76-.23,.47-.53,.62-1.03,.62-3.31-.02-6.63,0-9.94,0-3.26,0-6.53-.01-9.79,.01Z"/><path class="cls-2" d="M153.38,107.92c1.64-1.57,3.26-3.07,4.82-4.63,.65-.65,1.34-1,2.27-.99,3.88,.04,7.76,.04,11.63,.06,.78,0,1.19,.39,1.2,1.08,.01,.72-.43,1.14-1.23,1.14-3.78,0-7.56,0-11.34,.02-.36,0-.81,.19-1.07,.44-1.76,1.64-3.48,3.32-5.23,4.98-.83,.8-1.31,.8-2.14,.02-1.76-1.68-3.5-3.37-5.28-5.03-.25-.23-.67-.4-1.01-.4-3.78-.03-7.56-.02-11.34-.02-.87,0-1.34-.48-1.25-1.25,.07-.65,.46-.97,1.23-.97,2.48,0,4.96,0,7.44-.01,1.28,0,2.55-.03,3.83-.09,1.02-.05,1.85,.24,2.59,.97,1.58,1.57,3.22,3.09,4.89,4.69Z"/><path class="cls-2" d="M163.81,108.41c1.32,0,2.64,0,3.97,0,.8,0,1.19,.37,1.2,1.07,.01,.72-.41,1.14-1.21,1.15-2.64,0-5.29,0-7.93,0-.8,0-1.25-.42-1.25-1.12,0-.7,.44-1.09,1.26-1.1,1.32,0,2.64,0,3.97,0Z"/><path class="cls-2" d="M142.97,108.41c1.3,0,2.6,0,3.89,0,.82,0,1.26,.4,1.26,1.1,0,.7-.44,1.12-1.25,1.12-2.64,0-5.29,0-7.93,0-.8,0-1.22-.43-1.21-1.15,.01-.7,.4-1.06,1.2-1.07,1.35-.01,2.69,0,4.04,0Z"/><path class="cls-2" d="M154.49,68.64c0,.79,.02,1.57,0,2.36-.02,.82-.43,1.22-1.16,1.21-.69-.02-1.08-.41-1.09-1.21-.02-1.6-.02-3.19,0-4.79,0-.77,.43-1.2,1.09-1.23,.69-.02,1.14,.44,1.16,1.23,.02,.81,0,1.62,0,2.43Z"/><path class="cls-2" d="M174.24,76.86c.23,.21,.67,.44,.79,.79,.11,.34,.03,1.01-.21,1.16-1.59,1-3.22,1.94-4.88,2.82-.5,.27-.95-.09-1.21-.56-.28-.48-.26-1.03,.21-1.32,1.59-.97,3.21-1.87,4.83-2.79,.08-.05,.19-.04,.48-.11Z"/><path class="cls-2" d="M137.23,81.82c-.44-.18-.7-.25-.93-.38-1.36-.77-2.72-1.56-4.07-2.35-.71-.42-.88-.97-.52-1.59,.35-.61,.93-.75,1.64-.35,1.41,.8,2.8,1.61,4.2,2.42,.47,.27,.78,.7,.53,1.22-.18,.4-.57,.7-.84,1.03Z"/><path class="cls-2" d="M165.05,68.19c1.08,.01,1.66,.84,1.26,1.58-.83,1.53-1.7,3.03-2.6,4.51-.33,.56-.93,.64-1.47,.32-.53-.31-.74-.89-.43-1.45,.83-1.5,1.68-2.98,2.57-4.44,.17-.27,.54-.42,.67-.52Z"/><path class="cls-2" d="M141.67,68.18c.14,.11,.52,.27,.7,.57,.87,1.42,1.69,2.86,2.51,4.31,.35,.63,.15,1.25-.44,1.56-.58,.31-1.13,.17-1.5-.45-.85-1.43-1.69-2.87-2.49-4.32-.44-.79,.09-1.64,1.23-1.67Z"/><path class="cls-2" d="M132.06,88.87c.79,0,1.57-.02,2.35,0,.76,.02,1.17,.44,1.16,1.13,0,.66-.39,1.08-1.12,1.09-1.67,.03-3.34,.03-5,0-.7-.01-1.11-.48-1.1-1.12,.01-.64,.43-1.08,1.13-1.1,.86-.03,1.72,0,2.58,0Z"/><path class="cls-2" d="M174.72,91.11c-.81,0-1.62,.02-2.43,0-.77-.02-1.17-.44-1.16-1.12,0-.69,.42-1.1,1.19-1.11,1.62-.02,3.24-.02,4.86,0,.74,0,1.18,.46,1.18,1.13,0,.64-.42,1.07-1.13,1.1-.83,.03-1.67,0-2.5,0Z"/></g><g><path class="cls-2" d="M101.03,15.02c.6,.05,1.69,.44,2.54,.14,.82-.29,1.33-1.35,2.06-1.98,7.75-6.71,19.5-4.07,23.69,5.32,.24,.53,.51,.85,1.09,1.06,4.97,1.79,7.91,6.85,7.09,12.1-.78,5.04-5.26,8.96-10.46,9.16-1.07,.04-1.62-.35-1.67-1.21-.06-.95,.48-1.47,1.59-1.54,4.29-.27,7.47-3.28,7.95-7.53,.43-3.82-2.25-7.53-6.26-8.64-.78-.21-1.2-.66-1.49-1.41-1.92-4.92-5.49-7.83-10.79-8.25-4.38-.35-7.96,1.43-10.65,4.88-.72,.92-1.37,1.27-2.6,.97-5.86-1.43-11.42,2.14-12.55,7.95-1.11,5.71,2.8,11.06,8.74,11.96,.36,.05,.72,.05,1.08,.07,.99,.07,1.51,.58,1.5,1.45-.01,.85-.59,1.32-1.6,1.31-5.47-.07-10.39-3.76-12.03-9-2.63-8.46,3.55-16.83,12.79-16.82Z"/><path class="cls-2" d="M113.11,35.58c-3.36,0-6.71,.02-10.06-.02-.5,0-1.14-.16-1.45-.49-.27-.29-.36-1.02-.18-1.39,.2-.39,.79-.79,1.23-.82,1.26-.1,2.53,0,3.8,0,5.35,.03,10.7,.05,16.05,.08,1.8,0,2.93-.64,3.38-1.9,.39-1.12,.05-2.34-.89-3.1-.9-.73-2.04-.79-3.12-.13-.26,.15-.49,.36-.71,.56-.78,.72-1.35,.77-1.95,.14-.6-.62-.59-1.41,.03-2.11,2.09-2.36,5.96-2.38,8.05,0,1.5,1.71,1.94,3.69,1.02,5.81-.94,2.18-2.67,3.32-5.04,3.36-3.38,.05-6.77,.01-10.16,.01Z"/><path class="cls-2" d="M114.16,43.38c1.75,0,3.51-.09,5.25,.02,3.32,.2,5.37,3.04,4.47,6.1-.51,1.74-1.72,2.82-3.46,3.23-1.79,.42-3.35-.09-4.61-1.42-.61-.64-.59-1.4,0-2.02,.56-.6,1.18-.58,1.9,.02,.27,.23,.56,.47,.88,.62,1.08,.49,2.24-.02,2.64-1.14,.38-1.05-.16-2.24-1.24-2.53-.57-.16-1.19-.18-1.79-.18-3.02,0-6.04,.04-9.06,.01-.47,0-1.12-.14-1.37-.46-.28-.35-.38-1.08-.2-1.47,.18-.39,.81-.76,1.26-.79,1.78-.09,3.56-.04,5.34-.04v.03Z"/><path class="cls-2" d="M113.65,40.86c-2.66,0-5.32,.01-7.98,0-1.11,0-1.59-.48-1.55-1.43,.04-.9,.53-1.33,1.57-1.33,2.69,0,5.38,0,8.07,0,2.66,0,5.32,0,7.98,0,1.07,0,1.67,.6,1.58,1.53-.07,.79-.6,1.22-1.6,1.23-2.69,.01-5.38,0-8.07,0Z"/></g></g><g><path class="cls-2" d="M26.77,26.89c-3.14,0-6.28,0-9.43,0-1,0-1.52,.64-1.24,1.5,.24,.7,.82,.74,1.44,.74,13.74,0,27.49,0,41.23,0,1.87,0,3.73,0,5.6,0,.88,0,1.33-.47,1.27-1.25-.06-.67-.45-.98-1.29-.98-3.17,0-6.33,0-9.5,0-.26,0-.51-.02-.86-.04,1.46-3.21,1.85-6.44,.99-9.77-.87-3.35-2.67-6.1-5.44-8.17-4.92-3.67-11.46-4.04-16.54-.56-6.71,4.6-8.04,10.99-5.45,18.54-.26,0-.52,0-.78,0Zm4.22-.06c-.58,0-.88-.19-1.13-.7-3.82-7.6,1.12-16.79,9.55-17.75,6.82-.78,12.97,4.21,13.66,11.06,.24,2.4-.29,4.62-1.31,6.76-.23,.47-.53,.62-1.03,.62-3.31-.02-6.63,0-9.94,0-3.26,0-6.53-.01-9.79,.01Z"/><path class="cls-2" d="M40.88,38.5c1.64-1.57,3.26-3.07,4.82-4.63,.65-.65,1.34-1,2.27-.99,3.88,.04,7.76,.04,11.63,.06,.78,0,1.19,.39,1.2,1.08,.01,.72-.43,1.14-1.23,1.14-3.78,0-7.56,0-11.34,.02-.36,0-.81,.19-1.07,.44-1.76,1.64-3.48,3.32-5.23,4.98-.83,.8-1.31,.8-2.14,.02-1.76-1.68-3.5-3.37-5.28-5.03-.25-.23-.67-.4-1.01-.4-3.78-.03-7.56-.02-11.34-.02-.87,0-1.34-.48-1.25-1.25,.07-.65,.46-.97,1.23-.97,2.48,0,4.96,0,7.44-.01,1.28,0,2.55-.03,3.83-.09,1.02-.05,1.85,.24,2.59,.97,1.58,1.57,3.22,3.09,4.89,4.69Z"/><path class="cls-2" d="M51.31,39c1.32,0,2.64,0,3.97,0,.8,0,1.19,.37,1.2,1.07,.01,.72-.41,1.14-1.21,1.15-2.64,0-5.29,0-7.93,0-.8,0-1.25-.42-1.25-1.12,0-.7,.44-1.09,1.26-1.1,1.32,0,2.64,0,3.97,0Z"/><path class="cls-2" d="M30.47,39c1.3,0,2.6,0,3.89,0,.82,0,1.26,.4,1.26,1.1,0,.7-.44,1.12-1.25,1.12-2.64,0-5.29,0-7.93,0-.8,0-1.22-.43-1.21-1.15,.01-.7,.4-1.06,1.2-1.07,1.35-.01,2.69,0,4.04,0Z"/><path class="cls-2" d="M41.99-.77c0,.79,.02,1.57,0,2.36-.02,.82-.43,1.22-1.16,1.21-.69-.02-1.08-.41-1.09-1.21-.02-1.6-.02-3.19,0-4.79,0-.77,.43-1.2,1.09-1.23,.69-.02,1.14,.44,1.16,1.23,.02,.81,0,1.62,0,2.43Z"/><path class="cls-2" d="M61.74,7.44c.23,.21,.67,.44,.79,.79,.11,.34,.03,1.01-.21,1.16-1.59,1-3.22,1.94-4.88,2.82-.5,.27-.95-.09-1.21-.56-.28-.48-.26-1.03,.21-1.32,1.59-.97,3.21-1.87,4.83-2.79,.08-.05,.19-.04,.48-.11Z"/><path class="cls-2" d="M24.73,12.41c-.44-.18-.7-.25-.93-.38-1.36-.77-2.72-1.56-4.07-2.35-.71-.42-.88-.97-.52-1.59,.35-.61,.93-.75,1.64-.35,1.41,.8,2.8,1.61,4.2,2.42,.47,.27,.78,.7,.53,1.22-.18,.4-.57,.7-.84,1.03Z"/><path class="cls-2" d="M52.55-1.23c1.08,.01,1.66,.84,1.26,1.58-.83,1.53-1.7,3.03-2.6,4.51-.33,.56-.93,.64-1.47,.32-.53-.31-.74-.89-.43-1.45,.83-1.5,1.68-2.98,2.57-4.44,.17-.27,.54-.42,.67-.52Z"/><path class="cls-2" d="M29.17-1.23c.14,.11,.52,.27,.7,.57,.87,1.42,1.69,2.86,2.51,4.31,.35,.63,.15,1.25-.44,1.56-.58,.31-1.13,.17-1.5-.45-.85-1.43-1.69-2.87-2.49-4.32-.44-.79,.09-1.64,1.23-1.67Z"/><path class="cls-2" d="M19.56,19.45c.79,0,1.57-.02,2.35,0,.76,.02,1.17,.44,1.16,1.13,0,.66-.39,1.08-1.12,1.09-1.67,.03-3.34,.03-5,0-.7-.01-1.11-.48-1.1-1.12,.01-.64,.43-1.08,1.13-1.1,.86-.03,1.72,0,2.58,0Z"/><path class="cls-2" d="M62.22,21.69c-.81,0-1.62,.02-2.43,0-.77-.02-1.17-.44-1.16-1.12,0-.69,.42-1.1,1.19-1.11,1.62-.02,3.24-.02,4.86,0,.74,0,1.18,.46,1.18,1.13,0,.64-.42,1.07-1.13,1.1-.83,.03-1.67,0-2.5,0Z"/></g></g></pattern></defs><g id="Layer_1-2"><rect class="cls-1" width="1927.86" height="1077.69"/></g></svg>